<svg width="45" height="51" viewBox="0 0 45 51" fill="none" xmlns="http://www.w3.org/2000/svg">
<path d="M23.2322 50.4C18.4394 50.4 14.301 49.3472 10.8173 47.2416C7.35577 45.136 4.68195 42.1904 2.79586 38.4048C0.931953 34.6192 0 30.2176 0 25.2C0 20.1824 0.931953 15.7808 2.79586 11.9952C4.68195 8.2096 7.35577 5.264 10.8173 3.1584C14.301 1.0528 18.4394 0 23.2322 0C28.7352 0 33.3506 1.3776 37.0784 4.1328C40.8284 6.888 43.4689 10.6176 45 15.3216L35.8802 17.8752C34.9926 14.9408 33.4948 12.6672 31.3868 11.0544C29.2788 9.4192 26.5607 8.6016 23.2322 8.6016C20.1923 8.6016 17.6516 9.2848 15.6102 10.6512C13.591 12.0176 12.071 13.944 11.0503 16.4304C10.0296 18.9168 9.51923 21.84 9.51923 25.2C9.51923 28.56 10.0296 31.4832 11.0503 33.9696C12.071 36.456 13.591 38.3824 15.6102 39.7488C17.6516 41.1152 20.1923 41.7984 23.2322 41.7984C26.5607 41.7984 29.2788 40.9808 31.3868 39.3456C33.4948 37.7104 34.9926 35.4368 35.8802 32.5248L45 35.0784C43.4689 39.7824 40.8284 43.512 37.0784 46.2672C33.3506 49.0224 28.7352 50.4 23.2322 50.4Z" fill="#67CBA0"/>
<path d="M23.1469 37.8C20.0017 37.8 17.4578 37.106 15.5152 35.7179C13.588 34.3147 12.4163 32.3382 12 29.7884L18.4291 28.8379C18.6912 29.9846 19.2694 30.8823 20.1636 31.531C21.0732 32.1798 22.2218 32.5042 23.6094 32.5042C24.7503 32.5042 25.6291 32.293 26.2458 31.8705C26.8625 31.433 27.1709 30.8295 27.1709 30.06C27.1709 29.5772 27.0475 29.1925 26.8009 28.9058C26.5542 28.604 25.9991 28.3098 25.1358 28.0232C24.2878 27.7365 22.9619 27.3593 21.158 26.8916C19.1229 26.3786 17.4964 25.8053 16.2784 25.1716C15.0604 24.5379 14.1816 23.7835 13.642 22.9084C13.1024 22.0182 12.8325 20.947 12.8325 19.6947C12.8325 18.1256 13.2411 16.7677 14.0582 15.6211C14.8754 14.4593 16.024 13.5691 17.5041 12.9505C18.9996 12.3168 20.7572 12 22.7769 12C24.7349 12 26.4694 12.2942 27.9803 12.8826C29.4912 13.4711 30.7092 14.3084 31.6343 15.3947C32.5747 16.4811 33.1529 17.7635 33.3687 19.2421L26.9396 20.3737C26.8317 19.4684 26.4308 18.7518 25.737 18.2237C25.0433 17.6956 24.1028 17.3863 22.9156 17.2958C21.7593 17.2203 20.8266 17.3712 20.1173 17.7484C19.4236 18.1256 19.0767 18.6688 19.0767 19.3779C19.0767 19.8003 19.2231 20.1549 19.5161 20.4416C19.8244 20.7282 20.4488 21.0225 21.3893 21.3242C22.3452 21.626 23.7944 22.0182 25.737 22.5011C27.6334 22.9839 29.152 23.5496 30.2929 24.1984C31.4492 24.8321 32.2895 25.6016 32.8137 26.5068C33.3379 27.397 33.6 28.4758 33.6 29.7432C33.6 32.2477 32.6749 34.2167 30.8248 35.65C28.9747 37.0833 26.4154 37.8 23.1469 37.8Z" fill="#67CBA0"/>
</svg>
